<?xml version="1.0" standalone="no"?>
<!DOCTYPE svg PUBLIC "-//W3C//DTD SVG 20010904//EN"
 "http://www.w3.org/TR/2001/REC-SVG-20010904/DTD/svg10.dtd">
<svg version="1.0" xmlns="http://www.w3.org/2000/svg"
 width="2213.000000pt" height="2213.000000pt" viewBox="0 0 2213.000000 2213.000000"
 preserveAspectRatio="xMidYMid meet">
<metadata>
Created by potrace 1.14, written by Peter Selinger 2001-2017
</metadata>
<g transform="translate(0.000000,2213.000000) scale(0.100000,-0.100000)"
fill="#000000" stroke="none">
<path d="M10900 21198 c-18 -40 -39 -84 -46 -98 l-12 -25 119 -1 c86 0 119 3
117 11 -2 6 -21 51 -43 98 -37 82 -41 87 -71 87 -28 0 -33 -5 -64 -72z"/>
<path d="M10845 20977 c-161 -16 -334 -75 -470 -162 -33 -21 -94 -73 -136
-115 -128 -128 -196 -279 -203 -445 -1 -20 6 -20 926 -21 l927 -1 3 21 c5 31
-17 143 -41 207 -67 179 -252 355 -462 440 -172 70 -354 96 -544 76z"/>
<path d="M5960 19718 l0 -460 83 6 c45 4 96 9 112 11 17 2 57 6 90 10 33 3 76
7 95 9 19 3 71 7 115 11 44 4 94 8 110 10 101 11 170 18 305 30 41 3 86 8 100
10 14 2 61 6 105 10 44 3 91 8 105 10 14 2 57 7 95 10 39 3 88 8 110 10 88 10
226 23 315 30 36 3 76 7 90 10 14 2 61 7 105 11 44 3 91 8 105 9 14 1 57 6 95
9 39 4 86 9 105 11 38 4 137 14 210 20 56 5 150 14 210 20 25 3 72 7 105 11
33 3 74 7 90 8 17 2 64 7 105 10 41 4 91 9 110 11 19 2 69 7 110 11 41 3 77 7
80 9 3 1 50 6 105 10 55 4 102 9 104 11 4 4 5 177 2 240 -1 14 -8 20 -23 20
-21 1 -89 7 -204 19 -23 2 -72 7 -110 10 -38 3 -87 7 -109 10 -22 3 -65 7 -95
9 -142 12 -197 18 -225 21 -16 2 -66 7 -110 10 -44 3 -91 8 -105 10 -14 3 -61
7 -105 11 -44 4 -91 8 -105 9 -14 2 -61 6 -105 9 -44 4 -96 9 -115 11 -19 2
-64 7 -100 10 -36 3 -105 10 -155 15 -49 5 -121 12 -160 15 -38 3 -88 8 -110
10 -45 5 -116 11 -220 20 -38 4 -81 8 -95 10 -14 2 -65 7 -114 10 -48 4 -96 8
-105 10 -9 2 -57 6 -107 10 -49 3 -96 8 -104 10 -8 2 -55 7 -105 10 -49 4
-101 8 -115 10 -25 4 -85 10 -210 20 -36 3 -83 8 -105 10 -89 9 -164 16 -209
20 l-46 4 0 -461z"/>
<path d="M15939 20176 c-2 -2 -44 -7 -94 -11 -49 -3 -103 -8 -120 -9 -32 -4
-147 -14 -230 -22 -63 -5 -137 -13 -195 -19 -25 -3 -67 -7 -95 -10 -72 -6
-196 -17 -225 -20 -14 -1 -61 -6 -105 -9 -44 -4 -98 -9 -120 -11 -22 -3 -65
-7 -95 -10 -84 -7 -171 -16 -210 -20 -19 -2 -71 -7 -115 -10 -44 -4 -91 -8
-105 -10 -25 -4 -92 -10 -210 -20 -36 -3 -83 -8 -105 -10 -22 -2 -71 -7 -110
-10 -38 -3 -81 -8 -95 -10 -14 -2 -61 -6 -105 -10 -44 -3 -98 -8 -120 -10 -22
-3 -66 -7 -97 -10 -111 -10 -173 -16 -203 -20 -16 -2 -70 -7 -120 -10 -49 -4
-98 -9 -108 -11 -9 -1 -56 -6 -105 -9 -48 -4 -97 -8 -110 -10 -12 -2 -61 -7
-109 -11 -48 -3 -94 -8 -102 -9 -9 -2 -22 -4 -28 -4 -10 -1 -13 -34 -13 -131
l0 -130 28 -1 c15 0 34 -2 42 -3 8 -2 51 -6 95 -10 44 -3 91 -8 105 -10 14 -3
63 -7 110 -11 47 -4 99 -8 115 -10 17 -2 62 -7 100 -10 39 -3 81 -8 95 -10 14
-2 57 -6 95 -10 39 -3 88 -8 110 -10 22 -3 67 -7 100 -10 33 -3 78 -7 100 -10
22 -2 72 -7 110 -10 39 -3 90 -8 115 -11 25 -2 66 -6 93 -9 83 -9 140 -14 207
-20 36 -3 81 -8 100 -10 19 -3 67 -7 106 -10 40 -3 87 -7 105 -10 19 -2 63 -6
99 -10 36 -3 83 -8 105 -10 22 -3 65 -7 95 -10 30 -3 75 -7 100 -10 25 -3 70
-7 100 -10 113 -10 253 -23 310 -30 19 -2 67 -7 105 -10 94 -8 194 -18 305
-30 25 -3 72 -7 105 -10 124 -10 190 -17 197 -21 4 -2 10 0 13 6 5 8 9 622 5
888 0 28 -8 40 -21 28z"/>
<path d="M10026 19438 c1 -343 2 -625 3 -628 1 -4 1851 -5 1871 -1 4 1 5 1155
1 1229 l-1 22 -938 0 -937 0 1 -622z m1725 435 c1 -42 1 -438 0 -466 -1 -16
-43 -17 -788 -15 l-788 3 -1 245 c0 135 2 251 4 258 3 9 170 12 788 12 l784 0
1 -37z"/>
<path d="M9546 18628 c-93 -13 -117 -57 -117 -214 0 -105 2 -120 23 -150 12
-18 34 -39 48 -45 20 -10 334 -13 1469 -14 1599 -1 1482 -6 1528 64 20 30 23
46 23 145 0 128 -14 168 -69 200 -33 19 -66 19 -1446 20 -776 1 -1433 -2
-1459 -6z"/>
<path d="M9699 18013 c-1 -10 -2 -29 -4 -43 -1 -14 -5 -79 -9 -145 -4 -66 -9
-140 -11 -165 -4 -61 -15 -210 -20 -295 -3 -38 -7 -104 -10 -145 -3 -41 -7
-111 -10 -155 -3 -44 -7 -107 -10 -140 -2 -33 -7 -105 -10 -160 -5 -94 -8
-135 -20 -287 -2 -35 -7 -103 -10 -153 -5 -87 -9 -146 -20 -305 -3 -41 -7
-111 -10 -155 -3 -44 -7 -107 -10 -140 -2 -33 -7 -109 -11 -170 -4 -60 -8
-126 -9 -145 -1 -19 -6 -87 -9 -150 -4 -63 -9 -126 -11 -140 -2 -14 -7 -81
-10 -150 -4 -69 -8 -141 -10 -160 -2 -19 -6 -82 -10 -140 -3 -58 -8 -125 -10
-150 -4 -42 -12 -166 -20 -307 -8 -138 -16 -251 -20 -293 -2 -25 -7 -97 -10
-160 -4 -63 -8 -131 -10 -150 -4 -34 -10 -119 -20 -300 -3 -47 -7 -110 -9
-140 -3 -30 -8 -100 -12 -155 -3 -55 -8 -122 -9 -150 -2 -27 -6 -95 -9 -150
-4 -55 -8 -122 -10 -150 -3 -27 -7 -97 -11 -155 -3 -58 -8 -125 -10 -150 -2
-25 -7 -88 -10 -140 -6 -93 -10 -164 -20 -297 -2 -38 -7 -111 -10 -163 -3 -52
-7 -115 -10 -140 -2 -25 -7 -94 -10 -155 -3 -60 -8 -130 -10 -155 -2 -25 -7
-85 -10 -135 -3 -49 -7 -121 -10 -160 -8 -110 -14 -212 -20 -310 -3 -49 -8
-112 -10 -140 -12 -156 -18 -257 -19 -314 l-1 -64 1838 -1 c1215 -1 1841 2
1846 9 4 6 6 26 5 45 -1 19 -5 73 -8 120 -3 47 -8 117 -11 155 -3 39 -7 105
-10 148 -3 42 -7 110 -10 150 -3 39 -7 106 -10 147 -4 70 -9 143 -20 300 -5
69 -13 195 -20 320 -3 41 -7 102 -9 135 -3 33 -8 105 -11 160 -3 55 -8 123
-10 150 -3 28 -7 88 -10 135 -12 185 -25 382 -30 455 -3 33 -7 98 -10 145 -3
47 -7 114 -10 150 -2 36 -7 103 -10 150 -3 47 -8 117 -10 155 -3 39 -7 108
-10 155 -5 85 -10 148 -20 290 -3 41 -7 113 -10 160 -3 47 -7 112 -10 145 -3
33 -7 98 -10 145 -2 47 -7 114 -9 150 -3 36 -8 106 -11 155 -3 50 -8 117 -10
150 -2 33 -7 101 -10 150 -3 50 -8 117 -10 150 -2 33 -7 101 -10 150 -3 50 -7
117 -10 150 -2 33 -7 101 -10 150 -5 87 -10 159 -20 295 -6 86 -14 219 -20
305 -10 150 -16 242 -20 300 -3 33 -7 98 -10 145 -3 47 -7 117 -10 155 -2 39
-7 111 -10 160 -5 88 -8 121 -20 295 -7 94 -10 134 -19 295 -4 61 -9 128 -11
151 -2 22 -7 90 -11 150 -3 60 -8 129 -10 154 -1 25 -6 101 -9 169 -4 68 -9
131 -10 140 -2 9 -4 35 -4 59 l-1 42 -1320 0 c-1250 0 -1320 -1 -1321 -17z
m1456 -735 c0 -179 -3 -279 -10 -281 -5 -2 -89 -3 -185 -3 l-175 1 -1 283 -2
282 187 -2 186 -3 0 -277z m1096 -845 c0 -27 2 -57 4 -68 2 -11 7 -67 10 -125
3 -58 7 -123 9 -145 3 -22 7 -92 11 -155 3 -63 8 -133 10 -155 2 -22 6 -85 10
-140 3 -55 8 -122 10 -150 2 -27 7 -90 10 -140 12 -189 15 -222 21 -295 l6
-75 -1332 0 -1331 0 6 115 c3 63 8 138 10 165 2 28 7 88 10 135 3 47 8 110 10
140 5 79 17 255 30 460 4 52 8 111 10 130 2 19 7 87 11 150 6 102 9 145 13
188 1 9 254 12 1231 12 l1230 0 1 -47z m-1096 -2195 l0 -278 -25 -1 c-35 -1
-289 -1 -321 0 l-26 1 0 280 -1 280 186 -2 187 -3 0 -277z m1295 -747 c3 -1 6
-16 6 -33 2 -45 15 -242 19 -298 2 -25 7 -85 10 -135 3 -49 7 -112 10 -140 2
-27 6 -99 10 -160 4 -60 8 -126 10 -145 2 -19 6 -82 10 -140 3 -58 8 -125 10
-150 3 -25 7 -87 10 -139 3 -51 6 -96 7 -100 5 -39 82 -37 -1524 -36 -838 1
-1528 3 -1535 3 -7 1 -10 15 -8 35 2 17 7 79 10 137 3 58 8 124 10 148 2 24 6
89 10 145 4 56 8 120 10 142 1 22 6 92 10 155 4 63 8 131 10 150 2 19 6 82 10
140 4 58 8 121 10 140 2 19 6 87 10 150 4 63 10 118 13 122 4 3 21 8 37 10 23
2 2801 1 2825 -1z m-1368 -1948 c54 -24 110 -78 140 -135 l23 -43 3 -501 3
-501 -281 0 c-278 0 -280 0 -281 21 0 12 -1 230 -1 486 0 511 0 512 62 590 77
98 218 133 332 83z"/>
<path d="M8850 9897 c-69 -34 -75 -53 -78 -236 -3 -103 0 -166 6 -170 6 -3
997 -6 2204 -6 l2193 0 0 165 c0 187 -9 215 -75 247 -32 15 -185 16 -2125 17
-1982 1 -2092 0 -2125 -17z"/>
<path d="M7659 9235 c-57 -41 -113 -81 -124 -89 -11 -8 -121 -86 -245 -174
-124 -88 -265 -189 -315 -224 -49 -36 -247 -176 -440 -313 -192 -136 -369
-262 -392 -279 -23 -17 -171 -123 -330 -235 -158 -112 -308 -219 -333 -237
-25 -18 -99 -71 -165 -118 -166 -118 -225 -160 -225 -162 0 0 24 3 53 7 28 5
68 11 87 14 19 3 132 22 250 41 118 19 226 37 240 39 14 2 39 6 55 9 17 3 102
17 190 31 88 14 171 28 185 30 89 15 341 57 370 61 54 8 69 11 305 49 121 20
234 38 250 41 17 2 41 6 55 9 14 3 39 7 55 9 17 3 85 14 152 26 67 11 143 23
170 26 26 3 55 7 63 9 8 3 33 7 55 10 22 3 51 8 65 11 34 6 51 9 235 39 187
30 202 32 275 45 30 5 71 12 90 14 19 3 49 8 65 11 37 6 90 15 370 60 121 20
231 38 245 40 14 2 41 7 60 10 19 3 60 10 90 15 30 6 69 12 85 14 17 2 62 9
100 16 39 6 81 13 95 15 14 2 43 7 65 10 397 65 698 115 730 120 56 8 96 15
125 20 14 3 41 7 60 10 19 3 46 8 60 10 14 3 43 8 65 10 22 3 92 14 155 25 63
11 132 22 154 26 21 3 48 9 60 12 11 4 983 7 2158 8 1176 0 2140 3 2143 6 4 4
-111 117 -257 250 -39 35 -253 234 -323 300 -33 31 -76 70 -95 88 -19 18 -88
82 -153 143 -65 60 -132 123 -150 138 l-32 29 -3201 0 -3201 0 -104 -75z"/>
<path d="M9390 6032 c-320 -47 -566 -280 -635 -599 -20 -97 -14 -294 13 -395
72 -268 271 -466 537 -533 82 -21 286 -29 360 -14 28 6 61 13 75 15 41 9 151
55 207 88 74 44 163 119 158 133 -2 7 -34 53 -71 103 l-66 90 -40 -32 c-122
-100 -244 -148 -383 -153 -153 -5 -268 38 -367 137 -105 105 -159 253 -152
418 4 96 7 119 29 181 55 154 196 276 353 306 61 12 205 8 252 -6 87 -26 170
-64 225 -102 l55 -39 65 100 c36 55 65 102 65 105 0 11 -111 86 -168 115 -151
75 -348 106 -512 82z"/>
<path d="M531 6010 c-4 -3 -10 -14 -13 -25 -3 -11 -35 -103 -71 -205 -204
-579 -436 -1245 -439 -1260 -3 -12 19 -15 134 -15 l138 -1 63 191 64 190 265
3 265 2 64 -192 65 -193 141 0 140 -1 -54 156 c-106 302 -135 385 -143 410 -4
14 -31 90 -60 170 -53 148 -78 220 -194 555 -36 105 -69 197 -74 205 -7 12
-36 15 -146 15 -76 0 -141 -2 -145 -5z m173 -370 c14 -58 51 -181 82 -275 31
-93 62 -188 69 -210 l13 -40 -194 0 c-107 0 -194 2 -194 6 0 3 16 52 36 110
50 149 122 373 128 401 18 78 28 119 31 116 1 -2 14 -50 29 -108z"/>
<path d="M1286 6012 c-15 -3 -16 -17 -14 -119 l3 -115 245 -2 245 -1 1 -630
c1 -346 2 -632 3 -635 0 -3 61 -6 135 -6 l134 1 1 580 c0 319 0 605 0 637 l1
56 223 0 c122 0 233 1 247 1 l25 1 -2 100 c0 55 -2 108 -2 118 -1 16 -37 17
-614 17 -337 0 -621 -1 -631 -3z"/>
<path d="M2751 6010 c-5 -4 -8 -1452 -2 -1495 1 -7 154 -10 461 -10 l460 0 0
117 0 118 -325 0 -325 0 -2 637 -3 637 -128 0 c-71 1 -132 -1 -136 -4z"/>
<path d="M4244 6005 c-15 -44 -47 -134 -54 -150 -4 -11 -17 -47 -28 -80 -26
-77 -227 -652 -299 -855 -30 -85 -58 -166 -63 -180 -4 -14 -24 -70 -44 -124
-20 -55 -33 -102 -30 -105 3 -3 66 -6 139 -7 l134 0 63 193 63 193 265 0 265
0 65 -192 65 -193 138 -1 138 0 -6 25 c-5 22 -71 211 -241 694 -19 53 -49 141
-68 195 -146 417 -207 586 -212 591 -10 10 -286 6 -290 -4z m159 -290 c10 -60
40 -164 108 -371 38 -115 69 -214 69 -220 0 -10 -364 -13 -375 -3 -5 5 84 288
122 389 3 8 7 20 8 25 2 6 10 39 20 75 41 162 39 158 48 105z"/>
<path d="M5271 6010 c-5 -4 -8 -1451 -2 -1496 1 -7 45 -10 134 -10 l132 1 1
490 c1 270 -2 516 -5 548 -4 31 -5 57 -2 56 4 0 26 -41 51 -91 24 -50 88 -156
141 -237 53 -80 176 -267 273 -416 98 -148 190 -288 206 -310 l28 -40 119 -1
c65 -1 125 0 134 3 15 3 16 72 16 756 l0 752 -121 -1 c-67 -1 -128 -2 -136 -3
-14 -1 -15 -59 -14 -498 0 -274 4 -523 7 -553 4 -30 4 -48 0 -40 -23 55 -135
244 -241 405 -170 259 -324 493 -388 592 -30 45 -60 85 -66 90 -14 8 -256 11
-267 3z"/>
<path d="M6727 6012 c-15 -3 -17 -19 -17 -118 l0 -114 28 -1 c15 0 126 -1 248
-1 l221 0 -1 -617 c-1 -339 0 -625 2 -637 4 -20 9 -21 135 -20 l132 1 5 636 5
636 239 1 c145 0 241 4 245 10 5 8 7 202 2 222 -1 5 -1216 7 -1244 2z"/>
<path d="M8196 6004 c-8 -7 -11 -238 -11 -755 l1 -744 137 0 137 0 -2 755 -3
755 -124 0 c-76 0 -129 -4 -135 -11z"/>
<path d="M10987 6008 c-14 -7 -15 -998 -2 -1064 5 -21 9 -44 11 -51 12 -58 47
-133 92 -193 106 -142 301 -225 517 -219 176 5 316 57 424 157 62 58 129 175
145 255 2 7 6 29 11 51 6 29 11 931 6 1051 -1 19 -8 20 -131 20 -71 -1 -132
-4 -136 -7 -3 -4 -6 -229 -6 -500 0 -508 -4 -565 -41 -628 -60 -103 -150 -145
-304 -144 -56 0 -108 5 -115 11 -7 6 -25 13 -40 17 -42 10 -122 94 -143 151
-17 46 -19 90 -22 525 -2 261 -3 498 -3 525 l0 50 -126 0 c-69 0 -131 -3 -137
-7z"/>
<path d="M12557 6012 c-16 -3 -17 -59 -17 -756 l0 -752 135 0 c88 0 135 4 136
10 1 6 3 151 4 321 1 171 3 315 4 320 1 9 188 13 195 4 1 -2 19 -33 38 -69 75
-137 93 -168 153 -275 34 -60 77 -137 95 -170 35 -64 71 -127 78 -135 2 -3 73
-5 157 -5 l154 0 -31 55 c-17 30 -43 75 -58 100 -22 37 -102 175 -152 265 -38
67 -181 312 -188 320 -29 37 -22 53 140 326 89 149 172 289 186 310 13 21 24
41 24 43 0 3 11 22 25 42 14 20 23 39 21 43 -5 8 -283 7 -291 -1 -3 -3 -84
-140 -179 -304 l-174 -299 -98 0 -99 0 0 297 c0 163 -3 300 -8 304 -7 8 -216
12 -250 6z"/>
<path d="M13896 6010 c-1 -3 -2 -342 -1 -755 l0 -750 138 -1 137 0 0 281 0
282 130 -1 c72 -1 133 -5 138 -11 5 -5 40 -68 77 -140 37 -71 80 -152 95 -180
15 -27 48 -91 74 -141 l47 -90 149 0 c130 0 150 2 150 16 0 9 -4 20 -9 26 -5
5 -44 72 -86 149 -77 139 -123 222 -155 280 -9 17 -32 57 -50 90 -18 33 -37
66 -42 72 -7 9 -5 15 8 20 82 29 172 134 210 242 36 104 34 249 -5 348 -55
140 -184 236 -347 259 -56 8 -655 12 -658 4z m611 -249 c92 -26 144 -102 146
-210 1 -110 -42 -183 -132 -223 -36 -17 -68 -20 -197 -22 l-154 -2 0 238 0
237 148 -3 c81 -1 166 -8 189 -15z"/>
<path d="M15606 5975 c-8 -22 -44 -125 -81 -230 -36 -104 -76 -219 -89 -255
-14 -36 -79 -222 -147 -415 -67 -192 -139 -398 -159 -458 -21 -59 -35 -109
-31 -110 3 -2 66 -3 140 -3 l133 1 62 190 63 190 265 3 266 2 64 -192 65 -193
140 0 140 -1 -38 111 c-20 60 -65 189 -99 285 -34 96 -69 195 -77 220 -8 25
-19 54 -23 65 -5 11 -19 49 -30 85 -11 36 -25 74 -30 85 -4 11 -15 40 -23 65
-8 25 -43 124 -77 220 -33 96 -75 216 -92 265 -17 50 -35 94 -40 100 -4 5 -71
10 -148 10 l-139 0 -15 -40z m288 -662 c35 -106 61 -194 58 -194 -26 -5 -374
-3 -377 2 -3 3 27 98 65 211 38 113 81 254 96 313 l27 108 33 -124 c18 -68 62
-211 98 -316z"/>
<path d="M16647 6008 c-12 -7 -17 -1472 -5 -1491 5 -8 50 -12 138 -13 l130 0
0 755 0 756 -126 0 c-69 0 -131 -3 -137 -7z"/>
<path d="M17282 6005 c-11 -17 -8 -1486 3 -1493 6 -4 68 -7 138 -7 l129 -1 -4
547 -3 546 38 -76 c37 -72 124 -220 136 -231 7 -6 63 -90 71 -105 3 -5 54 -84
114 -175 60 -91 160 -242 221 -335 l112 -171 134 1 134 0 3 755 2 755 -131 -1
c-84 0 -133 -4 -137 -11 -9 -14 -7 -890 2 -1008 l7 -90 -49 95 c-52 101 -70
130 -265 428 -70 105 -184 279 -253 385 -70 105 -128 194 -130 196 -9 9 -266
6 -272 -4z"/>
<path d="M18887 6008 c-9 -5 -12 -188 -10 -750 0 -408 1 -745 2 -748 1 -3 62
-5 136 -5 l135 0 0 755 0 755 -126 0 c-69 0 -131 -3 -137 -7z"/>
<path d="M19865 5970 c-9 -25 -27 -74 -40 -110 -13 -36 -57 -162 -98 -280 -41
-118 -107 -307 -147 -420 -39 -113 -101 -288 -136 -390 -36 -102 -71 -202 -79
-222 -7 -21 -10 -39 -7 -39 7 -2 271 -6 272 -5 1 1 29 87 64 191 l62 190 266
3 266 2 64 -192 65 -193 140 0 c151 -1 145 -4 123 50 -4 11 -17 47 -28 80 -41
121 -184 531 -192 550 -8 19 -76 213 -221 630 -34 99 -66 184 -70 189 -5 6
-72 10 -149 10 l-139 1 -16 -45z m189 -330 c14 -58 57 -198 95 -312 38 -114
66 -209 63 -211 -11 -6 -371 -2 -377 4 -3 3 24 90 59 193 36 102 79 243 97
311 18 69 33 124 34 123 2 -2 14 -50 29 -108z"/>
<path d="M20903 6006 c-5 -7 -8 -1326 -4 -1471 l1 -30 135 0 135 -1 0 101 c2
405 -1 890 -5 940 l-6 60 54 -100 c59 -111 57 -108 384 -603 128 -194 233
-357 233 -361 0 -4 8 -14 18 -23 13 -11 47 -14 147 -14 l130 1 3 755 2 755
-135 0 c-128 0 -135 -1 -136 -20 -4 -109 0 -895 5 -975 l7 -105 -64 115 c-35
63 -126 210 -202 325 -76 116 -185 282 -243 370 -93 143 -179 272 -189 285 -7
8 -265 5 -270 -4z"/>
<path d="M3035 3319 c-112 -15 -143 -22 -215 -45 -204 -68 -360 -206 -433
-384 -38 -91 -48 -151 -48 -260 1 -166 51 -289 165 -405 101 -103 209 -166
531 -311 192 -86 253 -122 320 -189 43 -43 64 -73 74 -105 39 -130 -15 -253
-136 -310 -190 -89 -477 -26 -724 160 l-64 48 -44 -62 c-24 -33 -57 -79 -73
-101 -16 -22 -49 -68 -73 -102 l-44 -61 52 -45 c109 -93 247 -170 387 -216
125 -42 218 -56 375 -56 191 0 265 15 413 87 176 84 294 223 350 413 35 120
35 281 -2 390 -75 222 -223 342 -645 519 -324 137 -430 227 -431 366 -1 175
155 283 394 274 130 -5 321 -77 433 -163 l53 -40 38 67 c22 37 65 116 97 175
l57 108 -23 21 c-188 164 -524 262 -784 227z"/>
<path d="M4948 3325 c-2 -1 -30 -5 -63 -8 -199 -19 -382 -102 -507 -230 -65
-68 -109 -139 -145 -237 -24 -68 -27 -88 -27 -210 0 -104 4 -146 18 -185 79
-221 219 -339 616 -515 251 -112 307 -143 377 -211 59 -57 86 -117 86 -193 1
-116 -67 -201 -197 -246 -78 -27 -252 -22 -351 10 -100 32 -225 96 -307 158
-39 29 -76 51 -82 49 -7 -3 -25 -24 -41 -48 -17 -24 -65 -92 -107 -150 -43
-59 -78 -109 -78 -112 0 -11 64 -68 126 -112 188 -137 438 -214 689 -213 138
1 236 18 346 61 219 86 366 253 420 477 19 80 16 261 -5 335 -41 139 -140 265
-281 356 -83 54 -218 120 -375 184 -350 144 -457 253 -420 428 26 125 155 207
334 211 85 2 123 -3 221 -31 103 -30 269 -119 301 -162 13 -17 29 5 111 159
28 52 62 114 74 136 28 50 26 53 -69 117 -138 92 -281 147 -452 172 -45 7
-207 14 -212 10z"/>
<path d="M7155 3323 c-75 -5 -230 -36 -304 -60 -366 -119 -640 -390 -760 -753
-46 -137 -59 -234 -56 -415 3 -184 4 -193 41 -335 101 -388 391 -700 764 -823
136 -45 234 -60 395 -61 228 -1 351 21 527 95 343 145 611 472 687 839 20 97
21 104 27 175 41 460 -145 879 -499 1123 -224 154 -528 234 -822 215z m344
-432 c51 -17 114 -43 139 -58 53 -30 159 -112 182 -140 88 -105 144 -204 178
-315 27 -86 34 -133 37 -246 8 -334 -148 -628 -413 -774 -130 -72 -321 -108
-456 -86 -28 4 -65 10 -82 13 -52 8 -160 50 -221 86 -76 45 -201 169 -252 249
-128 200 -170 490 -106 732 19 75 64 173 110 242 36 54 160 186 176 186 4 0
14 6 21 13 47 45 210 111 313 126 33 5 110 7 171 6 92 -3 126 -8 203 -34z"/>
<path d="M9937 3324 c-1 -1 -40 -5 -87 -9 -46 -3 -87 -8 -90 -10 -3 -2 -23 -6
-44 -9 -60 -10 -207 -61 -286 -100 -322 -159 -555 -469 -625 -831 -28 -147
-28 -368 1 -535 35 -201 162 -448 311 -605 147 -155 347 -266 583 -322 132
-31 395 -40 527 -17 252 44 482 154 651 311 l64 58 -102 140 c-56 77 -108 146
-115 153 -10 11 -28 1 -99 -56 -167 -134 -388 -220 -581 -225 -49 -2 -110 1
-135 5 -25 5 -58 11 -75 14 -210 37 -426 212 -523 425 -100 219 -113 479 -36
707 91 268 293 442 579 497 81 16 265 13 340 -4 147 -34 296 -101 408 -182
l67 -49 83 128 c45 70 92 142 104 161 l21 34 -32 27 c-112 96 -257 177 -401
224 -91 30 -100 32 -215 51 -71 12 -285 26 -293 19z"/>
<path d="M18397 3324 c-1 -1 -36 -4 -77 -8 -464 -38 -881 -374 -1019 -821 -12
-37 -23 -80 -26 -94 -3 -14 -7 -37 -10 -51 -37 -183 -20 -447 41 -641 24 -77
99 -247 114 -259 4 -3 9 -12 12 -20 12 -32 106 -149 178 -220 107 -106 249
-198 405 -261 168 -67 462 -96 660 -64 622 101 1033 608 1019 1255 -3 149 -4
160 -30 270 -95 397 -371 706 -750 840 -87 31 -205 58 -288 66 -55 6 -225 12
-229 8z m288 -423 c214 -59 386 -205 480 -406 66 -142 87 -233 86 -388 -1
-250 -84 -461 -246 -623 -192 -194 -471 -264 -750 -188 -280 76 -492 325 -550
644 -14 72 -14 296 -2 348 74 302 249 510 502 597 142 48 339 55 480 16z"/>
<path d="M838 3267 c-5 -11 -38 -101 -73 -201 -61 -174 -113 -323 -263 -751
-39 -110 -97 -276 -130 -370 -33 -93 -70 -197 -82 -230 -12 -33 -27 -78 -34
-100 -17 -52 -92 -266 -116 -330 -10 -27 -42 -116 -70 -197 -28 -81 -53 -155
-56 -163 -6 -14 19 -15 217 -13 l223 3 99 303 100 302 416 -2 416 -3 101 -300
101 -300 221 -3 221 -2 -10 32 c-6 18 -14 42 -19 53 -5 11 -31 88 -60 170 -28
83 -64 186 -80 230 -16 44 -61 172 -100 285 -107 305 -362 1034 -440 1255 -16
44 -47 134 -70 200 -23 66 -46 127 -50 135 -7 12 -44 15 -230 15 -207 0 -222
-1 -232 -18z m277 -567 c21 -85 89 -307 150 -492 l112 -338 -309 0 c-244 0
-309 3 -305 13 40 106 233 699 253 777 14 58 27 110 29 115 1 6 6 29 10 53 4
24 11 40 15 35 4 -4 24 -78 45 -163z"/>
<path d="M11314 3281 c-2 -2 -4 -537 -4 -1188 l0 -1183 217 2 217 3 1 1178 c0
649 -2 1182 -5 1186 -5 7 -419 9 -426 2z"/>
<path d="M12881 3260 c-5 -14 -41 -117 -80 -230 -40 -113 -87 -248 -106 -300
-32 -92 -79 -226 -238 -680 -42 -118 -119 -339 -172 -490 -134 -381 -225 -642
-225 -646 0 -2 99 -4 219 -4 l219 0 16 47 c9 27 53 157 96 290 44 133 83 249
86 257 6 15 51 16 422 14 l415 -3 101 -302 101 -303 222 0 222 0 -15 43 c-9
23 -47 132 -85 242 -39 110 -83 236 -99 280 -41 115 -225 638 -275 785 -24 69
-67 190 -95 270 -28 80 -60 170 -70 200 -10 30 -42 120 -70 200 -28 80 -67
190 -86 244 -19 55 -37 102 -40 105 -3 3 -106 6 -229 6 l-225 1 -9 -26z m267
-498 c12 -53 24 -105 27 -114 16 -68 58 -204 145 -463 55 -165 100 -303 100
-307 0 -5 -137 -8 -305 -8 -168 0 -305 2 -305 4 0 2 32 98 71 212 116 343 165
501 199 647 18 75 36 135 39 131 3 -3 16 -49 29 -102z"/>
<path d="M14059 3285 c-1 0 -1 -335 0 -356 1 -14 40 -16 386 -15 250 1 386 -3
386 -9 1 -5 3 -455 3 -1000 l2 -990 214 -3 215 -2 0 996 c0 604 3 998 9 1002
5 3 181 6 390 6 l380 1 0 178 c1 109 -3 181 -9 185 -7 5 -1774 11 -1976 7z"/>
<path d="M16383 3276 c-5 -7 -8 -2254 -4 -2348 1 -17 18 -18 216 -18 l215 0 0
1185 c0 652 -3 1186 -7 1186 -41 7 -416 2 -420 -5z"/>
<path d="M20140 3280 c-5 -3 -9 -531 -9 -1188 l1 -1182 216 2 217 3 -1 725 c0
642 -4 840 -19 977 -3 33 3 25 44 -57 69 -136 107 -205 159 -285 68 -105 249
-382 417 -637 83 -125 224 -340 314 -478 l164 -250 213 0 c161 0 213 3 216 13
3 10 2 2233 -1 2332 l-1 30 -207 0 c-115 1 -210 -3 -213 -7 -3 -3 -5 -343 -4
-755 0 -666 4 -849 20 -945 2 -16 2 -28 -1 -28 -3 0 -23 37 -46 83 -79 156
-143 263 -339 562 -108 165 -240 365 -292 445 -52 80 -151 231 -220 335 -68
105 -141 216 -161 248 -20 31 -40 58 -44 58 -27 4 -416 3 -423 -1z"/>
</g>
</svg>
